<mxfile host="app.diagrams.net" agent="Mozilla/5.0 (Windows NT 10.0; Win64; x64) AppleWebKit/537.36 (KHTML, like Gecko) Chrome/131.0.0.0 Safari/537.36" version="25.0.3">
  <diagram name="Page-1" id="8w1ynj7fhJXLikj_pTTF">
    <mxGraphModel dx="1135" dy="600" grid="1" gridSize="10" guides="1" tooltips="1" connect="1" arrows="1" fold="1" page="1" pageScale="1" pageWidth="850" pageHeight="1100" math="0" shadow="0">
      <root>
        <mxCell id="0" />
        <mxCell id="1" parent="0" />
        <mxCell id="8c99tSuwgByzyRz7v8ek-1" value="" style="edgeStyle=orthogonalEdgeStyle;rounded=0;orthogonalLoop=1;jettySize=auto;html=1;" edge="1" parent="1" source="8c99tSuwgByzyRz7v8ek-2" target="8c99tSuwgByzyRz7v8ek-4">
          <mxGeometry relative="1" as="geometry" />
        </mxCell>
        <mxCell id="8c99tSuwgByzyRz7v8ek-2" value="start" style="strokeWidth=2;html=1;shape=mxgraph.flowchart.start_1;whiteSpace=wrap;" vertex="1" parent="1">
          <mxGeometry x="270" y="30" width="100" height="60" as="geometry" />
        </mxCell>
        <mxCell id="8c99tSuwgByzyRz7v8ek-3" value="" style="edgeStyle=orthogonalEdgeStyle;rounded=0;orthogonalLoop=1;jettySize=auto;html=1;" edge="1" parent="1" source="8c99tSuwgByzyRz7v8ek-4" target="8c99tSuwgByzyRz7v8ek-6">
          <mxGeometry relative="1" as="geometry" />
        </mxCell>
        <mxCell id="8c99tSuwgByzyRz7v8ek-4" value="กำหนดตัวแปร ไว้รับเลข&lt;div&gt;และคำตอบ&lt;/div&gt;" style="whiteSpace=wrap;html=1;strokeWidth=2;" vertex="1" parent="1">
          <mxGeometry x="260" y="170" width="120" height="60" as="geometry" />
        </mxCell>
        <mxCell id="8c99tSuwgByzyRz7v8ek-31" style="edgeStyle=orthogonalEdgeStyle;rounded=0;orthogonalLoop=1;jettySize=auto;html=1;entryX=0.5;entryY=0;entryDx=0;entryDy=0;" edge="1" parent="1" source="8c99tSuwgByzyRz7v8ek-6" target="8c99tSuwgByzyRz7v8ek-9">
          <mxGeometry relative="1" as="geometry" />
        </mxCell>
        <mxCell id="8c99tSuwgByzyRz7v8ek-6" value="รับค่าจากผู้ใช้1ค่า" style="shape=parallelogram;perimeter=parallelogramPerimeter;whiteSpace=wrap;html=1;fixedSize=1;strokeWidth=2;" vertex="1" parent="1">
          <mxGeometry x="260" y="300" width="120" height="60" as="geometry" />
        </mxCell>
        <mxCell id="8c99tSuwgByzyRz7v8ek-7" value="" style="edgeStyle=orthogonalEdgeStyle;rounded=0;orthogonalLoop=1;jettySize=auto;html=1;" edge="1" parent="1" source="8c99tSuwgByzyRz7v8ek-9" target="8c99tSuwgByzyRz7v8ek-15">
          <mxGeometry relative="1" as="geometry" />
        </mxCell>
        <mxCell id="8c99tSuwgByzyRz7v8ek-46" style="edgeStyle=orthogonalEdgeStyle;rounded=0;orthogonalLoop=1;jettySize=auto;html=1;entryX=0.5;entryY=0;entryDx=0;entryDy=0;entryPerimeter=0;" edge="1" parent="1" source="8c99tSuwgByzyRz7v8ek-9" target="8c99tSuwgByzyRz7v8ek-27">
          <mxGeometry relative="1" as="geometry">
            <mxPoint x="410" y="1820" as="targetPoint" />
            <Array as="points">
              <mxPoint x="551" y="515" />
              <mxPoint x="551" y="1770" />
              <mxPoint x="320" y="1770" />
            </Array>
          </mxGeometry>
        </mxCell>
        <mxCell id="8c99tSuwgByzyRz7v8ek-9" value="ตัวเลขที่กรอกมากกว่าเท่ากับสอง" style="rhombus;whiteSpace=wrap;html=1;strokeWidth=2;" vertex="1" parent="1">
          <mxGeometry x="240" y="450" width="160" height="130" as="geometry" />
        </mxCell>
        <mxCell id="8c99tSuwgByzyRz7v8ek-10" style="edgeStyle=orthogonalEdgeStyle;rounded=0;orthogonalLoop=1;jettySize=auto;html=1;" edge="1" parent="1" source="8c99tSuwgByzyRz7v8ek-12">
          <mxGeometry relative="1" as="geometry">
            <mxPoint x="550" y="775" as="targetPoint" />
          </mxGeometry>
        </mxCell>
        <mxCell id="8c99tSuwgByzyRz7v8ek-11" value="" style="edgeStyle=orthogonalEdgeStyle;rounded=0;orthogonalLoop=1;jettySize=auto;html=1;" edge="1" parent="1" source="8c99tSuwgByzyRz7v8ek-12">
          <mxGeometry relative="1" as="geometry">
            <mxPoint x="320" y="929.5" as="targetPoint" />
          </mxGeometry>
        </mxCell>
        <mxCell id="8c99tSuwgByzyRz7v8ek-12" value="j ตูณ j น้อยกว่าเท่ากับค่าที่ป้อนมาไหม" style="rhombus;whiteSpace=wrap;html=1;strokeWidth=2;" vertex="1" parent="1">
          <mxGeometry x="240" y="710" width="160" height="130" as="geometry" />
        </mxCell>
        <mxCell id="8c99tSuwgByzyRz7v8ek-13" value="จริง" style="text;html=1;align=center;verticalAlign=middle;whiteSpace=wrap;rounded=0;" vertex="1" parent="1">
          <mxGeometry x="310" y="560" width="60" height="30" as="geometry" />
        </mxCell>
        <mxCell id="8c99tSuwgByzyRz7v8ek-14" value="" style="edgeStyle=orthogonalEdgeStyle;rounded=0;orthogonalLoop=1;jettySize=auto;html=1;" edge="1" parent="1" source="8c99tSuwgByzyRz7v8ek-15" target="8c99tSuwgByzyRz7v8ek-12">
          <mxGeometry relative="1" as="geometry" />
        </mxCell>
        <mxCell id="8c99tSuwgByzyRz7v8ek-15" value="กำหนดค่าตัวแปรanswer = 1 j = 2&amp;nbsp;" style="rounded=0;whiteSpace=wrap;html=1;strokeWidth=2;" vertex="1" parent="1">
          <mxGeometry x="220" y="612" width="200" height="60" as="geometry" />
        </mxCell>
        <mxCell id="8c99tSuwgByzyRz7v8ek-16" value="จริง" style="text;html=1;align=center;verticalAlign=middle;whiteSpace=wrap;rounded=0;" vertex="1" parent="1">
          <mxGeometry x="310" y="830.5" width="60" height="30" as="geometry" />
        </mxCell>
        <mxCell id="8c99tSuwgByzyRz7v8ek-17" value="ไม่จริง" style="text;html=1;align=center;verticalAlign=middle;whiteSpace=wrap;rounded=0;" vertex="1" parent="1">
          <mxGeometry x="390" y="474" width="60" height="30" as="geometry" />
        </mxCell>
        <mxCell id="8c99tSuwgByzyRz7v8ek-18" value="ไม่จริง" style="text;html=1;align=center;verticalAlign=middle;whiteSpace=wrap;rounded=0;" vertex="1" parent="1">
          <mxGeometry x="390" y="741" width="60" height="30" as="geometry" />
        </mxCell>
        <mxCell id="8c99tSuwgByzyRz7v8ek-27" value="end" style="strokeWidth=2;html=1;shape=mxgraph.flowchart.start_1;whiteSpace=wrap;rotation=0;" vertex="1" parent="1">
          <mxGeometry x="270" y="1820" width="100" height="60" as="geometry" />
        </mxCell>
        <mxCell id="8c99tSuwgByzyRz7v8ek-34" value="" style="edgeStyle=orthogonalEdgeStyle;rounded=0;orthogonalLoop=1;jettySize=auto;html=1;" edge="1" parent="1" source="8c99tSuwgByzyRz7v8ek-32" target="8c99tSuwgByzyRz7v8ek-33">
          <mxGeometry relative="1" as="geometry" />
        </mxCell>
        <mxCell id="8c99tSuwgByzyRz7v8ek-32" value="answer *= ( num % j != 0 ) ; สูตร j++" style="rounded=0;whiteSpace=wrap;html=1;strokeWidth=2;" vertex="1" parent="1">
          <mxGeometry x="260" y="930" width="120" height="60" as="geometry" />
        </mxCell>
        <mxCell id="8c99tSuwgByzyRz7v8ek-36" value="" style="edgeStyle=orthogonalEdgeStyle;rounded=0;orthogonalLoop=1;jettySize=auto;html=1;entryX=0.5;entryY=0;entryDx=0;entryDy=0;" edge="1" parent="1" source="8c99tSuwgByzyRz7v8ek-44" target="8c99tSuwgByzyRz7v8ek-37">
          <mxGeometry relative="1" as="geometry">
            <mxPoint x="320" y="1200" as="targetPoint" />
          </mxGeometry>
        </mxCell>
        <mxCell id="8c99tSuwgByzyRz7v8ek-33" value="กำหนดให้&lt;div&gt;k เอาคำตอบที่ได้มาคูณ&lt;/div&gt;&lt;div&gt;เลขที่กรอก&lt;/div&gt;" style="rounded=0;whiteSpace=wrap;html=1;strokeWidth=2;" vertex="1" parent="1">
          <mxGeometry x="260" y="1070" width="120" height="60" as="geometry" />
        </mxCell>
        <mxCell id="8c99tSuwgByzyRz7v8ek-40" value="" style="edgeStyle=orthogonalEdgeStyle;rounded=0;orthogonalLoop=1;jettySize=auto;html=1;" edge="1" parent="1" source="8c99tSuwgByzyRz7v8ek-37" target="8c99tSuwgByzyRz7v8ek-39">
          <mxGeometry relative="1" as="geometry" />
        </mxCell>
        <mxCell id="8c99tSuwgByzyRz7v8ek-48" style="edgeStyle=orthogonalEdgeStyle;rounded=0;orthogonalLoop=1;jettySize=auto;html=1;" edge="1" parent="1" source="8c99tSuwgByzyRz7v8ek-37">
          <mxGeometry relative="1" as="geometry">
            <mxPoint x="550" y="1265" as="targetPoint" />
          </mxGeometry>
        </mxCell>
        <mxCell id="8c99tSuwgByzyRz7v8ek-37" value="k &amp;gt; 0 ไหม" style="rhombus;whiteSpace=wrap;html=1;strokeWidth=2;" vertex="1" parent="1">
          <mxGeometry x="240" y="1200" width="160" height="130" as="geometry" />
        </mxCell>
        <mxCell id="8c99tSuwgByzyRz7v8ek-42" value="" style="edgeStyle=orthogonalEdgeStyle;rounded=0;orthogonalLoop=1;jettySize=auto;html=1;" edge="1" parent="1" source="8c99tSuwgByzyRz7v8ek-39" target="8c99tSuwgByzyRz7v8ek-41">
          <mxGeometry relative="1" as="geometry" />
        </mxCell>
        <mxCell id="8c99tSuwgByzyRz7v8ek-39" value="แสดงค่า ทีี่กรอก" style="shape=parallelogram;perimeter=parallelogramPerimeter;whiteSpace=wrap;html=1;fixedSize=1;strokeWidth=2;" vertex="1" parent="1">
          <mxGeometry x="260" y="1445" width="120" height="60" as="geometry" />
        </mxCell>
        <mxCell id="8c99tSuwgByzyRz7v8ek-43" style="edgeStyle=orthogonalEdgeStyle;rounded=0;orthogonalLoop=1;jettySize=auto;html=1;" edge="1" parent="1" source="8c99tSuwgByzyRz7v8ek-41">
          <mxGeometry relative="1" as="geometry">
            <mxPoint x="310" y="1160" as="targetPoint" />
            <Array as="points">
              <mxPoint x="320" y="1710" />
              <mxPoint x="180" y="1710" />
            </Array>
          </mxGeometry>
        </mxCell>
        <mxCell id="8c99tSuwgByzyRz7v8ek-41" value="ค่าที่กรอก-1" style="whiteSpace=wrap;html=1;strokeWidth=2;" vertex="1" parent="1">
          <mxGeometry x="260" y="1585" width="120" height="60" as="geometry" />
        </mxCell>
        <mxCell id="8c99tSuwgByzyRz7v8ek-45" value="" style="edgeStyle=orthogonalEdgeStyle;rounded=0;orthogonalLoop=1;jettySize=auto;html=1;entryX=0.5;entryY=0;entryDx=0;entryDy=0;" edge="1" parent="1" source="8c99tSuwgByzyRz7v8ek-33" target="8c99tSuwgByzyRz7v8ek-44">
          <mxGeometry relative="1" as="geometry">
            <mxPoint x="320" y="1130" as="sourcePoint" />
            <mxPoint x="320" y="1200" as="targetPoint" />
          </mxGeometry>
        </mxCell>
        <mxCell id="8c99tSuwgByzyRz7v8ek-44" value="" style="verticalLabelPosition=bottom;verticalAlign=top;html=1;shape=mxgraph.flowchart.on-page_reference;" vertex="1" parent="1">
          <mxGeometry x="310" y="1150" width="20" height="20" as="geometry" />
        </mxCell>
        <mxCell id="8c99tSuwgByzyRz7v8ek-47" value="ไม่จริง" style="text;html=1;align=center;verticalAlign=middle;whiteSpace=wrap;rounded=0;" vertex="1" parent="1">
          <mxGeometry x="390" y="1230" width="60" height="30" as="geometry" />
        </mxCell>
      </root>
    </mxGraphModel>
  </diagram>
</mxfile>
